<svg id="Layer_1" data-name="Layer 1" xmlns="http://www.w3.org/2000/svg" xmlns:xlink="http://www.w3.org/1999/xlink" viewBox="0 0 293.11 320.83"><defs><linearGradient id="linear-gradient" x1="219.45" y1="101.9" x2="230.66" y2="546.09" gradientUnits="userSpaceOnUse"><stop offset="0" stop-opacity="0"/><stop offset="0.95"/></linearGradient><linearGradient id="linear-gradient-2" x1="240.38" y1="37.65" x2="125.03" y2="98.41" xlink:href="#linear-gradient"/><linearGradient id="linear-gradient-3" x1="174.76" y1="56.79" x2="77.54" y2="108.01" xlink:href="#linear-gradient"/></defs><title>Collecting Data</title><path d="M326.77,59c-1.93-26-22.08-49.56-47.44-55.5-22.9-5.37-46.84,2.62-70.29.83-9.1-.7-18.07-2.87-27.2-3.1a65.47,65.47,0,0,0-52.37,24.66c-14.6,18.62-24.66,41.7-27.14,65.23C94.73,163.37,67.82,181.42,64.59,202c-12.49,79.5,69.12,116.62,134,119.89,59.17,3,138.22-34.43,148.16-47.12,14.37-18.38,10.19-64.5,3.75-86.92-5.16-18-13.16-35.86-14.69-54.66-1.26-15.59.22-24.78-5.92-40.22C325.59,82.22,327.61,70.31,326.77,59Z" transform="translate(-63.31 -1.25)" fill="#4299e1" opacity="0.24" style="isolation:isolate"/><polygon points="85.57 249.9 35.2 264.2 14.75 192.2 15.87 190.52 53.33 181.24 61.52 183.95 67.71 187.02 86.69 248.22 85.57 249.9" fill="#4299e1" opacity="0.44" style="isolation:isolate"/><path d="M332.34,121.11a39.13,39.13,0,0,1-39.16,39.16H146.75A39.15,39.15,0,0,1,144.83,82a37.74,37.74,0,0,1,37.1-31.21h5a37.78,37.78,0,0,1,24,8.62A45.29,45.29,0,0,1,298.42,76a33.92,33.92,0,0,1-.53,6.3A39.11,39.11,0,0,1,332.34,121.11Z" transform="translate(-63.31 -1.25)" fill="#4299e1"/><path d="M332.34,121.11a39.13,39.13,0,0,1-39.16,39.16H146.75A39.15,39.15,0,0,1,144.83,82a37.74,37.74,0,0,1,37.1-31.21h5a37.78,37.78,0,0,1,24,8.62A45.29,45.29,0,0,1,298.42,76a33.92,33.92,0,0,1-.53,6.3A39.11,39.11,0,0,1,332.34,121.11Z" transform="translate(-63.31 -1.25)" fill="url(#linear-gradient)"/><path d="M331.78,109.84a36.7,36.7,0,0,1-11.38,26.55,39.52,39.52,0,0,1-27.5,11H147.51c-21.52,0-38.95-16.76-38.95-37.53A36.78,36.78,0,0,1,119.94,83.3,39.31,39.31,0,0,1,145.6,72.38,35.41,35.41,0,0,1,156,53.07a38,38,0,0,1,26.45-10.6h5a38.39,38.39,0,0,1,23.82,8.25C217.77,34.59,234,23.16,253.1,23.16c24.87,0,45,19.43,45,43.44a31.09,31.09,0,0,1-.53,6C316.85,74.85,331.78,90.66,331.78,109.84Z" transform="translate(-63.31 -1.25)" fill="#fff"/><path d="M146.49,210.47H121.65a3,3,0,1,1,0-6h24.84a6.94,6.94,0,0,0,6.94-6.94V154.77a3,3,0,1,1,6,0v42.79A12.93,12.93,0,0,1,146.49,210.47Z" transform="translate(-63.31 -1.25)" fill="#4299e1"/><path d="M294.76,210.47H269.92A12.93,12.93,0,0,1,257,197.56V154.77a3,3,0,1,1,6,0v42.79a6.94,6.94,0,0,0,6.94,6.94h24.84a3,3,0,1,1,0,6Z" transform="translate(-63.31 -1.25)" fill="#4299e1"/><path d="M212.13,265.81a3,3,0,0,1-3-3V158.13a3,3,0,0,1,6,0V262.82A3,3,0,0,1,212.13,265.81Z" transform="translate(-63.31 -1.25)" fill="#4299e1"/><path d="M211.26,50.72l10.22,10.57s6.35-38.14,46.36-35.52C267.84,25.77,230.2,12.48,211.26,50.72Z" transform="translate(-63.31 -1.25)" fill="url(#linear-gradient-2)"/><path d="M145.6,72.38s7.27-.81,14.19,7.61c0,0,1.49-34,30.37-34.59,0,0-11.83-7.56-28.32,3.08C147.07,58,145.6,72.38,145.6,72.38Z" transform="translate(-63.31 -1.25)" fill="url(#linear-gradient-3)"/><polygon points="86.69 248.22 36.32 262.52 15.87 190.52 54.45 179.56 62.64 182.26 68.83 185.34 86.69 248.22" fill="#fff"/><path d="M117.6,180.81l8.7,11,6-5.42S124.33,182.28,117.6,180.81Z" transform="translate(-63.31 -1.25)" fill="#4299e1" opacity="0.44" style="isolation:isolate"/><path d="M126.3,191.78s3.5-1.33,4.69-.28,16.41,58.75,16.41,58.75l2.6-.79-17.74-63.1Z" transform="translate(-63.31 -1.25)" fill="#4299e1" opacity="0.1" style="isolation:isolate"/><polygon points="27.83 204.03 62.36 194.88 63.06 197.08 28.57 206.38 27.83 204.03" fill="#4299e1" opacity="0.44" style="isolation:isolate"/><polygon points="30.07 211.74 64.6 202.59 65.3 204.79 30.81 214.09 30.07 211.74" fill="#4299e1" opacity="0.44" style="isolation:isolate"/><polygon points="32.32 219.46 66.84 210.31 67.55 212.5 33.05 221.8 32.32 219.46" fill="#4299e1" opacity="0.44" style="isolation:isolate"/><polygon points="34.56 227.17 69.09 218.02 69.79 220.21 35.3 229.51 34.56 227.17" fill="#4299e1" opacity="0.44" style="isolation:isolate"/><polygon points="119.99 249.34 176.21 257.71 166.72 309.44 109.79 299.54 119.99 249.34" fill="#4299e1"/><polygon points="119.48 248.32 175.7 256.69 166.21 308.42 109.28 298.52 119.48 248.32" fill="#fff"/><polygon points="119.99 249.34 174.68 257.86 165.27 307.14 110.25 297.5 119.99 249.34" fill="#4299e1" opacity="0.44" style="isolation:isolate"/><polygon points="123.87 254.34 118.36 284.95 143.46 273.63 151.72 285.26 145.91 290.46 158.87 282.09 164.68 289.64 170.5 262.3 123.87 254.34" fill="#fff"/><path d="M303.82,242.28l-17.39-24.1,21-32.51,21.12,28.44s5.4,10.34.25,15.08-10.45-1.3-10.12-3.52,7.19-11,7.19-11l-12.34-16.34-18.25,26.82,13.46,19.76c3,5.41,1.33,12.53-4.16,15.4a7.58,7.58,0,0,1-6.8.38C291.28,257.87,303.82,242.28,303.82,242.28Z" transform="translate(-63.31 -1.25)" fill="#fff"/><path d="M304.66,242l-17.39-24.1,21-32.51,21.12,28.44s5.4,10.34.25,15.08-10.45-1.3-10.12-3.52,7.19-11,7.19-11L314.4,198.06l-18.25,26.82,13.47,19.76c3,5.41,1.32,12.53-4.17,15.4a7.58,7.58,0,0,1-6.8.38C292.13,257.59,304.66,242,304.66,242Z" transform="translate(-63.31 -1.25)" fill="#4299e1" opacity="0.44" style="isolation:isolate"/><path d="M305.87,241.82l-17.38-24.11,21-32.5,21.12,28.43s5.39,10.34.25,15.09-10.45-1.3-10.12-3.53,7.19-11,7.19-11l-12.34-16.34-18.26,26.82,13.47,19.76c3,5.42,1.33,12.53-4.17,15.4a7.53,7.53,0,0,1-6.79.38C293.34,257.4,305.87,241.82,305.87,241.82Z" transform="translate(-63.31 -1.25)" fill="#4299e1" opacity="0.44" style="isolation:isolate"/><circle cx="149.01" cy="199.04" r="9.35" fill="#fff"/><path d="M212.32,212.62a12.34,12.34,0,1,1,12.33-12.33A12.35,12.35,0,0,1,212.32,212.62Zm0-18.69a6.36,6.36,0,1,0,6.36,6.36A6.36,6.36,0,0,0,212.32,193.93Z" transform="translate(-63.31 -1.25)" fill="#4299e1"/><circle cx="197.24" cy="184.09" r="9.35" fill="#fff"/><path d="M260.55,197.67a12.34,12.34,0,1,1,12.34-12.34A12.35,12.35,0,0,1,260.55,197.67Zm0-18.7a6.36,6.36,0,1,0,6.36,6.36A6.37,6.37,0,0,0,260.55,179Z" transform="translate(-63.31 -1.25)" fill="#4299e1"/><circle cx="93.3" cy="184.09" r="9.35" fill="#fff"/><path d="M156.61,197.67a12.34,12.34,0,1,1,12.33-12.34A12.36,12.36,0,0,1,156.61,197.67Zm0-18.7a6.36,6.36,0,1,0,6.36,6.36A6.37,6.37,0,0,0,156.61,179Z" transform="translate(-63.31 -1.25)" fill="#4299e1"/></svg>