<svg id="Layer_1" data-name="Layer 1" xmlns="http://www.w3.org/2000/svg" xmlns:xlink="http://www.w3.org/1999/xlink" viewBox="0 0 474.6 445.54"><defs><linearGradient id="linear-gradient" x1="272.42" y1="378.24" x2="596.97" y2="121.68" gradientUnits="userSpaceOnUse"><stop offset="0" stop-color="#010101" stop-opacity="0"/><stop offset="0.95" stop-color="#010101"/></linearGradient><linearGradient id="linear-gradient-2" x1="242.29" y1="-16.56" x2="233.88" y2="576.48" xlink:href="#linear-gradient"/></defs><title>Iphone</title><path d="M369.42,431.28c42.05-5.25,84.94-6.35,125.7-18a250.94,250.94,0,0,0,59.65-25.8c11.42-6.81,22.48-14.73,30.34-25.45,21.21-29,13.52-70.24-2.9-102.19s-40.49-60.11-51.91-94.16c-10.65-31.77-11.2-69.85-36.3-92-9.87-8.72-22.42-13.72-34.88-18-21.5-7.39-44.16-13.17-66.78-10.86-28.35,2.9-53.7,18.09-80.25,28.44C286,83.4,258.3,89,232.13,99s-51.7,25.29-66,49.35c-16.33,27.41-15.64,61.46-12.42,93.2s8.41,64.41-.42,95.07c-7.28,25.25-23.7,47.48-28.54,73.31-5.74,30.64,8.32,56,36.43,69.44,33.46,16,70.15,9.6,97.27-10.73C290.24,444.77,330.62,436.11,369.42,431.28Z" transform="translate(-123.45 -44.28)" fill="#4299e1" opacity="0.24" style="isolation:isolate"/><path d="M433,170.37a11.09,11.09,0,0,1,3.78,9.16,21.65,21.65,0,0,1-3.19,9.68,42,42,0,0,1-9.77,11.57,96.78,96.78,0,0,1,.39-22.18c.26-2-1.06-7.23-.18-8.55C425.81,167.41,431,168.8,433,170.37Z" transform="translate(-123.45 -44.28)" fill="#f5e0cd"/><path d="M428.13,312.51a9.22,9.22,0,0,0-1.19,8c2,5.34,8.18,5.16,12.47,7.7,8.33,4.81,6.83,18.15,0,24.91s-16.7,9.14-25.62,12.66a136,136,0,0,0-26.59,14.11c-2.28,1.5-4.48,3-6.61,4.63-20.65,15.09-37.46,32.79-64.57,44.33-16.43,7-32.6,13-44.18,26.63-.62.73-1.23,1.44-1.82,2.15-32.4,38.29-90.43,43.38-127.78,9.9-8.46-7.59-12.41-14.65-5.4-21.13C161,424.1,188,408.94,205.63,379.85c8.89-14.64,14.79-30.92,20-47.24,4.67-14.75,8.8-29.65,12.84-44.58a357.15,357.15,0,0,1,16-46.54c11.62-27.32,12.76-20.52,32-47.36,2.69-3.73,8.25,5.9,9.75,10.23,4.63,13.78,2,36.08-6.84,42.88-3.73,2.83-9.63,19.9-8.44,27.41a14.65,14.65,0,0,0,.71,2.91c.75,1.72,2,1.68,5,.45,6.57-2.69,12.21-8.67,17.51-13.78,2.28-2.21,4.63-4.33,7.1-6.31,29.87-24.73,70.13-34.58,109-37.91,8.66-.75,17.76-1.12,25.16,4.42a14.44,14.44,0,0,1,5.81,9.29c2.34,16-23.91,20.59-21.67,34.73a18.58,18.58,0,0,1,13.67,31.78C438.66,304.82,431.83,306.73,428.13,312.51Z" transform="translate(-123.45 -44.28)" fill="#f5e0cd"/><path d="M412.37,300.12c-2.95,26.25-13.07,51.08-23.08,75.51a29.6,29.6,0,0,1-2.05,4.29,10.11,10.11,0,0,1-2.05,2.5,10.26,10.26,0,0,1-4.56,2.13,28.28,28.28,0,0,1-7.54.38l-55.68-2.58c-10.12-.49-21.85-1.79-27.42-10.27-3.21-4.86-1.08-11-1.27-16.81-.45-13.37,2.54-34.3,2.8-47.67.15-8.33-3.85-20.33-9.82-30,.75,1.72,2,1.68,5,.45,6.57-2.69,12.21-8.67,17.51-13.78,2.28-2.21,4.63-4.33,7.1-6.31,11.31-3.25,22.89-5.49,29.28-8,15.08-5.86,27.89-6.42,43.91-4.14,11.17,1.6,20.32,10.57,24.61,21S413.61,288.91,412.37,300.12Z" transform="translate(-123.45 -44.28)" fill="url(#linear-gradient)"/><rect x="179.64" y="91.34" width="118.82" height="241.38" rx="10.76" fill="#4299e1"/><rect x="179.64" y="91.34" width="118.82" height="241.38" rx="10.76" fill="url(#linear-gradient-2)"/><path d="M424.21,292.3q0,33.78,0,67.57c0,13.23-7.53,20.79-20.67,20.79q-42,0-83.94,0c-13.08,0-20.38-7.44-20.38-20.59q0-51,0-102.05c0-8.82.13-17.64-.06-26.45-.13-6.41-.77-12.8-1-19.2-.06-1.42.56-2.85.79-4.3.16-1,.57-2.22.21-3-2.55-5.93-.71-12.1-1.06-18.13-.18-3,1-6,1.09-9,0-2.44-1.18-4.89-1.11-7.32.23-7.09.58-14.2,1.32-21.26,1-9.56,8.87-16.14,19-16.17,20.67-.05,41.33,0,62,0,7.9,0,15.79-.07,23.69,0,12.71.06,20.12,7.48,20.15,20.09,0,3.6-.06,7.2,0,10.8.41,16.82,1.77,33.68,1,50.43-.53,11-.81,22-.93,33.07C424.09,262.37,424.22,277.34,424.21,292.3ZM303.57,256q0,51.73,0,103.45c0,10.24,6,16.33,16.17,16.34q41.81.06,83.6,0c11.13,0,17-5.93,17-17q0-64.24,0-128.49,0-38.65,0-77.33c0-10.15-6.16-16.27-16.22-16.31-2.44,0-4.88.07-7.31,0-2.62-.11-4,1-4.77,3.56-1.29,4.45-2.89,5.69-7.47,5.71q-22.46.12-44.93.06c-5.11,0-6.45-1.07-7.95-6a4.06,4.06,0,0,0-4.57-3.3c-2.79.09-5.58,0-8.36,0-8.79.09-15.14,6.39-15.15,15.2Q303.52,203.89,303.57,256Zm118.87,80.4-.12-.08v25h.12ZM301.75,355h0V335.59h0Z" transform="translate(-123.45 -44.28)" fill="#4299e1"/><path d="M414.79,241.94c-2.89,4.3-5.4,9.26-4.93,14.42s5,10.21,10.15,9.49c2.55-.36,4.71-2,6.69-3.64q3.85-3.19,7.45-6.71a26.6,26.6,0,0,0,4.41-5.24,15.38,15.38,0,0,0,.48-14.63c-1.91-3.72-7.32-8.95-11.9-7.47S417.4,238.07,414.79,241.94Z" transform="translate(-123.45 -44.28)" fill="#f5e0cd"/><path d="M414.79,292.06c-2.89,4.3-5.4,9.26-4.93,14.42s5,10.21,10.15,9.49c2.55-.36,4.71-2,6.69-3.64q3.85-3.19,7.45-6.71a26.6,26.6,0,0,0,4.41-5.24,15.38,15.38,0,0,0,.48-14.63c-1.91-3.72-7.32-8.95-11.9-7.47S417.4,288.19,414.79,292.06Z" transform="translate(-123.45 -44.28)" fill="#f5e0cd"/><path d="M414.79,338.67c-2.89,4.3-5.4,9.26-4.93,14.42s5,10.22,10.15,9.49c2.55-.36,4.71-2,6.69-3.63q3.85-3.19,7.45-6.71a26.6,26.6,0,0,0,4.41-5.24,15.38,15.38,0,0,0,.48-14.63c-1.91-3.73-7.32-8.95-11.9-7.48S417.4,334.8,414.79,338.67Z" transform="translate(-123.45 -44.28)" fill="#f5e0cd"/><g id="c5Uefy"><path d="M376,238.14l-.76.68a9.62,9.62,0,0,0-2.5,3.2,8.33,8.33,0,0,0,.94,8.55,6.58,6.58,0,0,0,2.88,2.44l.52.2c-.08.23-.15.46-.23.68a22.25,22.25,0,0,1-4,6.88,11.27,11.27,0,0,1-1.57,1.44,4.38,4.38,0,0,1-4.05.79c-.89-.26-1.77-.55-2.66-.82a8.77,8.77,0,0,0-2.26-.43,8,8,0,0,0-3.28.69,11.28,11.28,0,0,1-2.54.77,4.29,4.29,0,0,1-2.42-.38,7.91,7.91,0,0,1-2.61-2.09,24.24,24.24,0,0,1-3.64-6,21.11,21.11,0,0,1-1.83-6.64,15.92,15.92,0,0,1,.95-7.73,10.08,10.08,0,0,1,3.1-4.17,7.45,7.45,0,0,1,5-1.58,15.6,15.6,0,0,1,4,.74c.54.15,1.09.27,1.64.42a4.51,4.51,0,0,0,2.6,0l2.85-.86a9.65,9.65,0,0,1,3.58-.42,8,8,0,0,1,5,2.17c.44.41.84.87,1.26,1.31A1.41,1.41,0,0,1,376,238.14Z" transform="translate(-123.45 -44.28)" fill="#fff"/><path d="M361.14,235.09a9.74,9.74,0,0,1,2-6,9.14,9.14,0,0,1,5.37-3,2.93,2.93,0,0,1,.12,1.46,9.12,9.12,0,0,1-3.63,6.41,5.67,5.67,0,0,1-3,1.1Z" transform="translate(-123.45 -44.28)" fill="#fff"/></g></svg>